<svg width="185" height="31" viewBox="0 0 185 31" fill="none" xmlns="http://www.w3.org/2000/svg">
<path d="M25.7738 13.4204L14.659 6.90808L3.76577 0.508669C3.35958 0.20752 2.87954 0.0193014 2.36257 0.0193014C1.18093 0.0193014 0.183924 0.922748 0.0362189 2.12734V2.24027C0.0362189 2.31556 0.0362189 2.39085 0.0362189 2.46614C0.0362189 2.54142 0.0362189 2.61671 0.0362189 2.692V28.3649C-0.00070736 29.0802 0.22085 29.7578 0.700892 30.2848C1.43942 31.0376 2.54721 31.1882 3.47036 30.6989L25.7738 17.5612C26.8816 16.8836 27.2878 15.4155 26.6231 14.2862C26.4016 13.9474 26.1062 13.6463 25.7738 13.4204Z" fill="#131313"/>
<path d="M1.21786 17.5989L12.3327 24.1489L23.2259 30.5483C23.6321 30.8494 24.1122 31 24.6291 31C25.8108 31 26.8078 30.0966 26.9555 28.892V28.8167C26.9555 28.7414 26.9555 28.6661 26.9555 28.5908C26.9555 28.5155 26.9555 28.4402 26.9555 28.3649V2.61671C27.0293 1.90148 26.7708 1.2239 26.2908 0.696887C25.5523 -0.0559857 24.4445 -0.20656 23.5213 0.282807L12.3327 6.8328L1.21786 13.4204C0.0731452 14.0604 -0.333044 15.5285 0.294703 16.6954C0.516261 17.0719 0.811671 17.4107 1.21786 17.6365V17.5989Z" fill="#009CDE"/>
<path d="M43.8308 19.6693H39.9166V26.4828H34.1561V4.53654H43.8308C44.8647 4.53654 45.8617 4.72475 46.8218 5.06355C47.745 5.40234 48.5943 5.92935 49.3328 6.56929C50.0713 7.20923 50.6622 7.99975 51.0683 8.9032C51.5115 9.84429 51.733 10.823 51.733 11.877C51.733 12.9311 51.5115 13.9851 51.0683 14.9262C50.6622 15.8673 50.0344 16.6954 49.2959 17.4107C48.5574 18.1259 47.7081 18.6905 46.7849 19.067C45.8617 19.4811 44.8647 19.6693 43.8308 19.6693ZM43.4246 9.43021H40.0643V14.1733H43.4246C43.7569 14.1733 44.0524 14.098 44.3478 13.9851C44.6432 13.8722 44.9017 13.6839 45.1232 13.4957C45.3448 13.2699 45.5294 13.044 45.6402 12.7428C45.7879 12.4417 45.8248 12.1405 45.8248 11.8018C45.8248 11.463 45.751 11.1618 45.6402 10.8607C45.5294 10.5595 45.3448 10.3337 45.1232 10.1078C44.9017 9.88193 44.6432 9.69371 44.3478 9.58078C44.0524 9.50549 43.72 9.43021 43.4246 9.43021Z" fill="black"/>
<path d="M64.5095 27.0851C62.9955 27.0851 61.4446 26.7839 60.0414 26.1816C57.3089 25.0147 55.1302 22.7937 53.9486 20.0457C52.767 17.1471 52.767 13.9098 53.9486 11.0112C54.5394 9.61842 55.3518 8.37619 56.3857 7.32216C57.4197 6.26814 58.6752 5.43998 60.0045 4.83768C62.8478 3.63309 66.0604 3.63309 68.9038 4.83768C70.27 5.43998 71.4886 6.26814 72.5594 7.32216C73.6303 8.37619 74.4427 9.65607 75.0335 11.0489C76.2152 13.9474 76.2152 17.1848 75.0335 20.0834C73.8888 22.869 71.6732 25.09 68.9407 26.2193C67.5744 26.8216 66.0235 27.1227 64.5095 27.0851ZM64.5095 9.50549C63.7341 9.50549 62.9586 9.65607 62.257 9.99486C61.5924 10.296 60.9646 10.7477 60.4846 11.3124C59.4506 12.4417 58.8598 13.9474 58.8967 15.5285C58.8967 17.0719 59.4506 18.5776 60.4846 19.7446C61.0015 20.3092 61.5924 20.7233 62.257 21.0621C63.6971 21.7397 65.3219 21.7397 66.762 21.0621C67.4267 20.7609 68.0544 20.3092 68.5345 19.7446C70.6762 17.373 70.6762 13.6839 68.5345 11.3124C68.0544 10.7477 67.4267 10.296 66.762 9.99486C66.0604 9.65607 65.285 9.50549 64.5095 9.50549Z" fill="black"/>
<path d="M88.807 19.6693H84.8928V26.4828H79.1323V4.53654H88.807C89.841 4.53654 90.838 4.72475 91.798 5.06355C92.7212 5.40234 93.5705 5.92935 94.309 6.56929C95.0476 7.20923 95.6384 7.99975 96.0446 8.9032C96.4877 9.84429 96.7092 10.823 96.6723 11.877C96.6723 12.9311 96.4508 13.9851 96.0446 14.9262C95.1953 16.8084 93.6444 18.2765 91.7611 19.067C90.838 19.4434 89.804 19.6693 88.807 19.6693ZM88.4008 9.43021H85.0405V14.1733H88.4008C88.7332 14.1733 89.0286 14.098 89.324 13.9851C89.6194 13.8722 89.8779 13.6839 90.0994 13.4957C90.321 13.2699 90.5056 13.0064 90.6164 12.7428C90.7272 12.4417 90.801 12.1405 90.801 11.8018C90.801 11.5006 90.7272 11.1618 90.6164 10.8607C90.4687 10.5972 90.321 10.3337 90.0994 10.1078C89.8779 9.88193 89.6194 9.73136 89.324 9.58078C89.0286 9.50549 88.6962 9.43021 88.4008 9.43021Z" fill="black"/>
<path d="M110.187 27.1227C108.673 27.1227 107.159 26.8216 105.756 26.2193C104.427 25.617 103.171 24.7888 102.174 23.7348C101.14 22.6808 100.328 21.4009 99.7372 20.0457C98.5556 17.1848 98.5556 13.9474 99.7372 11.0865C100.328 9.69371 101.14 8.45147 102.174 7.39745C103.208 6.34343 104.427 5.47763 105.756 4.87533C107.159 4.23539 108.673 3.93424 110.187 3.93424C111.591 3.93424 112.994 4.19774 114.323 4.7624C115.689 5.32705 116.908 6.11757 118.016 7.0963L113.585 11.0489C112.588 10.296 111.406 9.91957 110.187 9.88193C109.449 9.88193 108.71 10.0325 108.009 10.3337C107.344 10.6348 106.79 11.0489 106.31 11.5759C105.83 12.1029 105.424 12.7428 105.165 13.3828C104.907 14.0604 104.759 14.7756 104.759 15.4908C104.759 16.9589 105.313 18.3894 106.31 19.4811C106.79 20.0081 107.381 20.4221 108.009 20.7233C108.673 21.0244 109.412 21.175 110.15 21.175C111 21.175 111.849 20.9492 112.624 20.5351C113.4 20.121 114.102 19.5187 114.618 18.8035L119.234 22.6431C118.126 24.0359 116.76 25.1652 115.172 25.9558C113.658 26.7463 111.96 27.1227 110.187 27.1227Z" fill="black"/>
<path d="M130.534 27.1227C128.983 27.1227 127.469 26.8216 126.066 26.2193C124.699 25.617 123.481 24.7888 122.447 23.7348C121.413 22.6808 120.564 21.4385 120.01 20.0457C118.828 17.1471 118.828 13.9098 120.01 11.0112C120.601 9.61842 121.413 8.37619 122.447 7.32216C123.481 6.26814 124.736 5.43998 126.066 4.83768C128.909 3.63309 132.122 3.63309 134.965 4.83768C136.331 5.43998 137.55 6.26814 138.621 7.32216C139.655 8.37619 140.504 9.61842 141.058 11.0112C142.276 13.9098 142.276 17.1471 141.058 20.0457C139.913 22.8313 137.697 25.0523 134.965 26.1816C133.562 26.7839 132.048 27.1227 130.534 27.1227ZM130.534 9.54314C129.758 9.54314 128.983 9.69371 128.281 10.0325C127.617 10.3337 127.026 10.7854 126.509 11.35C125.475 12.517 124.884 13.9851 124.884 15.5661C124.884 17.1095 125.475 18.6152 126.509 19.7822C127.026 20.3469 127.617 20.7609 128.281 21.0997C129.721 21.7773 131.346 21.7773 132.786 21.0997C133.451 20.7986 134.079 20.3469 134.559 19.7822C135.076 19.2175 135.445 18.5776 135.74 17.8624C136.331 16.3943 136.331 14.738 135.74 13.2699C135.482 12.5546 135.076 11.9147 134.559 11.35C134.042 10.7854 133.414 10.3337 132.749 10.0325C132.085 9.69371 131.309 9.50549 130.534 9.54314Z" fill="black"/>
<path d="M157.97 26.4451L154.24 19.6693H150.622V26.4451H144.713V4.53654H155.459C156.013 4.53654 156.53 4.64947 157.047 4.83768C157.601 5.0259 158.118 5.28941 158.598 5.6282C159.078 5.96699 159.558 6.30579 160.001 6.71987C160.407 7.0963 160.776 7.54803 161.072 7.99975C161.441 8.5644 161.736 9.24199 161.921 9.91957C162.106 10.5972 162.216 11.3124 162.216 12.0276C162.216 13.0816 161.958 14.1357 161.478 15.0767C160.998 16.0178 160.259 16.846 159.41 17.4483L164.469 26.4828L157.97 26.4451ZM153.834 9.43021H150.474V14.1357H153.834C154.167 14.1357 154.462 14.098 154.757 13.9474C155.053 13.8345 155.311 13.6463 155.533 13.4581C155.754 13.2322 155.939 13.0063 156.05 12.7052C156.161 12.4041 156.234 12.1029 156.234 11.7641C156.234 11.463 156.161 11.1242 156.05 10.823C155.902 10.5595 155.754 10.296 155.533 10.0701C155.09 9.65607 154.499 9.43021 153.834 9.43021Z" fill="black"/>
<path d="M179.24 26.4451L171.78 14.7756V26.4451H166.057V4.57418H171.78L179.276 16.3943V4.57418H185V26.4451H179.24Z" fill="black"/>
</svg>
